<?xml version="1.0" encoding="utf-8"?>
<!-- Generator: Adobe Illustrator 18.0.0, SVG Export Plug-In . SVG Version: 6.00 Build 0)  -->
<!DOCTYPE svg PUBLIC "-//W3C//DTD SVG 1.1 Basic//EN" "http://www.w3.org/Graphics/SVG/1.1/DTD/svg11-basic.dtd">
<svg version="1.1" baseProfile="basic" xmlns="http://www.w3.org/2000/svg" xmlns:xlink="http://www.w3.org/1999/xlink" x="0px"
	 y="0px" viewBox="0 0 595.3 841.9" xml:space="preserve">
<g id="Layer_2" display="none">
</g>
<g id="Layer_1">
	<path display="none" fill="#FFFFFF" d="M543.4,391.3h-49.2V243.8c0-108.6-88-196.6-196.6-196.6C189,47.2,101,135.3,101,243.8v147.4
		H51.9c-27,0-49.2,22.1-49.2,49.2v344.1c0,27,22.1,49.2,49.2,49.2h491.5c27,0,49.2-22.1,49.2-49.2V440.4
		C592.6,413.4,570.4,391.3,543.4,391.3z M297.6,686.2c-27.2,0-49.2-22-49.2-49.1c0-27.1,22-49.2,49.2-49.2c27.1,0,49.2,22,49.2,49.2
		C346.8,664.2,324.8,686.2,297.6,686.2z M396,391.3H199.3V243.8c0-54.2,44.1-98.3,98.3-98.3c54.2,0,98.3,44.1,98.3,98.3V391.3z"/>
	<path fill="#FFFFFF" d="M573.4,432.6c10.2-11.2,9.2-28.5-2.2-38.4L319.3,173.7c-11.4-10-29.8-9.8-40.9,0.5L25.6,405.9
		c-11.2,10.3-11.7,27.5-1.2,38.4l6.3,6.6c10.5,10.9,27.5,12.2,37.9,2.9l18.9-16.9v247.6c0,15.2,12.3,27.5,27.5,27.5h98.5
		c15.2,0,27.5-12.3,27.5-27.5V511.2h125.7v173.2c-0.2,15.2,10.6,27.5,25.8,27.5h104.4c15.2,0,27.5-12.3,27.5-27.5V440.3
		c0,0,5.2,4.6,11.6,10.2c6.4,5.6,19.9,1.1,30.1-10.1L573.4,432.6z"/>
</g>
</svg>
